# xmcd
# 
# Track frame offsets:
#     150
#     21630
#     41037
#     62517
# 
# Disc length: 1090
# 
# Revision: 2
# Processed by: cddbd v1.5.2PL0 Copyright (c) Steve Scherf et al.
# Submitted via: fre:ac v1.0.17
# 
DISCID=32044004
DTITLE=あさみちゆき - 愛染桜
DYEAR=2013
DGENRE=Blues
TTITLE0=愛染桜
TTITLE1=室積海岸
TTITLE2=愛染桜（オリジナル・カラオケ）
TTITLE3=室積海岸（オリジナル・カラオケ）
EXTD=
EXTT0=
EXTT1=
EXTT2=
EXTT3=
PLAYORDER=
